PathFileType	4	(X/Y/Z)	E:\Qualisys_Data\Carbon_Farble_Plate\Data\Amateur_Runner\S2\T1\S2T1V23_c3d.trc
DataRate	CameraRate	NumFrames	NumMarkers	Units	OrigDataRate	OrigDataStartFrame	OrigNumFrames
200.000000	200.000000	4	39	mm	200.000000	157	314
Frame#	Time	LSHO			RSHO			LICST			RICST			LASIS			LHEEL			RASIS			LTROC			RTROC			SACR			LTH1			LSK4			LTH2			LTH3			RHM5			LSK2			LTH4			RTH1			LTOE			RTH2			RTH3			RTH4			LLEP			RLEP			LSK1			LSK3			RSK1			LHM5			RSK2			LFT1			RSK3			RSK4			LLME			RLME			RTOE			RHEEL			RFT1			RFT2			LFT2			
		X1	Y1	Z1	X2	Y2	Z2	X3	Y3	Z3	X4	Y4	Z4	X5	Y5	Z5	X6	Y6	Z6	X7	Y7	Z7	X8	Y8	Z8	X9	Y9	Z9	X10	Y10	Z10	X11	Y11	Z11	X12	Y12	Z12	X13	Y13	Z13	X14	Y14	Z14	X15	Y15	Z15	X16	Y16	Z16	X17	Y17	Z17	X18	Y18	Z18	X19	Y19	Z19	X20	Y20	Z20	X21	Y21	Z21	X22	Y22	Z22	X23	Y23	Z23	X24	Y24	Z24	X25	Y25	Z25	X26	Y26	Z26	X27	Y27	Z27	X28	Y28	Z28	X29	Y29	Z29	X30	Y30	Z30	X31	Y31	Z31	X32	Y32	Z32	X33	Y33	Z33	X34	Y34	Z34	X35	Y35	Z35	X36	Y36	Z36	X37	Y37	Z37	X38	Y38	Z38	X39	Y39	Z39	

158	0.785	3.716797113418579	1472.52587890625	-437.4232788085938	-70.05754852294922	1448.924194335938	-145.9371643066406	-86.29027557373047	1011.523986816406	-456.7334899902344	-83.57453918457031	997.1590576171876	-158.4510803222656	-37.74662780761719	955.9410400390624	-444.0386962890625	-618.5598754882812	500.8822021484375	-349.5646057128906	-26.76989936828613	950.7305297851562	-188.79150390625	-185.1315765380859	910.7740478515624	-463.2981262207031	-156.8448638916016	893.7680053710938	-148.4045257568359	-178.7497863769531	1049.374877929688	-312.9502258300781	-142.5407867431641	648.0509643554688	-483.1430969238281	-473.8273010253906	523.9795532226562	-449.6455383300781	-221.3543548583984	674.0720825195312	-481.3077087402344	-175.4067993164062	550.8616943359375	-474.4247131347656	259.3039855957031	136.3852691650391	-165.5663909912109	-377.6481323242188	542.5684204101562	-472.9729919433594	-254.3315734863281	580.0733032226562	-460.5969848632812	64.96575927734375	665.8003540039062	-145.7033843994141	-707.2405395507812	277.521728515625	-398.68896484375	-7.006533622741699	632.7286376953125	-137.4655303955078	100.4282455444336	576.665283203125	-182.1395721435547	25.41213226318359	546.0842895507812	-171.5520629882812	-243.3957366943359	526.5829467773438	-472.7803039550781	70.30615234375	531.5296630859375	-172.3712768554688	-364.3905944824219	463.8843688964844	-473.9191284179688	-462.181396484375	447.2147827148438	-458.8190002441406	124.9272155761719	421.4414672851562	-172.1582794189453	-721.02197265625	343.749267578125	-447.0008544921875	47.27468109130859	410.3773803710938	-154.8156585693359	-639.336181640625	489.1499328613281	-317.9580688476562	138.2498168945312	320.1550903320312	-180.7422943115234	59.62784576416016	312.6070861816406	-165.7450561523438	-633.8737182617188	455.759521484375	-415.9592590332031	126.5194396972656	127.6667251586914	-198.6597290039062	303.59716796875	175.9856719970703	-227.6050109863281	75.08679962158203	87.55664825439453	-254.703125	102.0613250732422	68.25556182861328	-284.2786560058594	86.26793670654297	63.66976547241211	-228.3193206787109	-649.1775512695312	512.03662109375	-367.0144653320312
159	0.79	23.62943649291992	1468.686157226562	-436.4465942382812	-49.50711822509766	1443.899291992188	-144.3813323974609	-66.15472412109375	1007.79345703125	-456.6281433105469	-65.09774780273438	993.731201171875	-158.8859405517578	-18.19901275634766	952.4666748046876	-443.4217224121094	-590.5857543945312	506.8666687011719	-348.4269714355469	-7.615316867828369	947.5677490234376	-188.2160949707031	-164.7504272460938	906.1427612304688	-463.7850646972656	-137.8114318847656	890.2886962890625	-147.7199401855469	-159.3395233154297	1045.37841796875	-312.7792053222656	-117.7927856445312	643.494873046875	-484.0318603515625	-445.3705139160156	524.2093505859375	-450.259033203125	-196.892333984375	667.7052612304688	-481.507080078125	-148.6641235351562	545.2527465820312	-475.6337585449219	270.6369018554688	130.0077514648438	-165.9214935302734	-349.2901611328125	539.5167236328125	-474.0439758300781	-227.9948425292969	572.9267578125	-460.9146118164062	84.16717529296875	662.4898681640625	-146.5248260498047	-683.980224609375	285.5940246582031	-397.9346923828125	11.35439872741699	629.9293212890625	-139.5104522705078	119.1365737915039	573.3689575195312	-183.4802093505859	43.61545944213867	543.4985961914062	-171.4954071044922	-216.0612640380859	520.2554931640625	-473.893310546875	88.75164031982422	527.8230590820312	-172.9289398193359	-338.1788635253906	460.3858642578125	-474.3981628417969	-436.3450927734375	446.8641052246094	-458.2609558105469	140.9691467285156	416.2832641601562	-172.3272094726562	-696.5906372070312	352.3145141601562	-445.6644897460938	62.97226715087891	406.3131408691406	-155.4446258544922	-611.493408203125	495.2723388671875	-316.7225341796875	153.2242431640625	314.8909912109375	-181.3535919189453	74.16802978515625	307.9596557617188	-167.2162475585938	-607.2781372070312	462.7165832519531	-414.4262084960938	138.2267913818359	122.7016677856445	-200.7032775878906	316.3375854492188	169.4258575439453	-226.7657012939453	87.22941589355469	83.52144622802734	-257.6684875488281	114.3378829956055	64.40950012207031	-286.9976806640625	97.65489196777344	58.89940643310547	-231.5017852783203	-620.9536743164062	518.7323608398438	-365.1873779296875
160	0.795	43.6942253112793	1464.77294921875	-435.7092895507812	-28.70346641540527	1438.744384765625	-142.8677673339844	-46.38413238525391	1004.115966796875	-456.5043029785156	-46.38824462890625	990.1060180664062	-158.5691223144531	1.651104092597961	948.5485229492188	-442.9863586425781	-561.6767578125	512.792724609375	-346.7398376464844	11.18031692504883	943.8743286132812	-187.5115814208984	-144.6157379150391	901.2658081054688	-463.9223022460938	-119.0996170043945	886.2909545898438	-147.0521392822266	-140.4945983886719	1041.631469726562	-312.0809326171875	-92.70498657226562	638.1698608398438	-484.8484497070312	-416.9067993164062	524.0921630859375	-450.4339294433594	-172.6578979492188	660.90234375	-481.7857666015625	-122.0450668334961	539.5421142578125	-477.2467956542969	281.1330871582031	122.6471633911133	-166.5596008300781	-320.0609436035156	536.1419067382812	-474.9686889648438	-201.4955444335938	565.675537109375	-461.9236755371094	103.4062652587891	659.9623413085938	-147.8009796142578	-659.8062744140625	293.7217407226562	-395.8186340332031	30.5408935546875	627.7662963867188	-141.2884674072266	138.1860809326172	570.39892578125	-184.5808563232422	62.47053527832031	540.3947143554688	-172.1245269775391	-188.6529541015625	513.2764282226562	-474.9091186523438	106.8894882202148	524.3927001953125	-173.5345458984375	-311.63671875	456.8780517578125	-474.5564270019531	-410.3538818359375	446.5113830566406	-457.3695983886719	157.4298248291016	410.7811584472656	-172.2933044433594	-670.8987426757812	360.6062622070312	-443.2474975585938	78.61906433105469	402.0149536132812	-156.6181335449219	-582.9456176757812	501.2998962402344	-315.1660461425781	167.5316009521484	309.0708923339844	-182.4292602539062	88.18498229980469	303.9867248535156	-168.8314666748047	-580.0107421875	469.1164855957031	-412.8907470703125	149.6946563720703	117.6905364990234	-202.6291961669922	327.909912109375	161.9388427734375	-226.9154663085938	98.48063659667967	79.43614959716797	-260.4267272949219	125.7134780883789	60.04414367675781	-289.6187744140625	108.4529571533203	54.38607025146484	-234.2561340332031	-591.7120361328125	525.2240600585938	-363.6586303710938
161	0.8	63.60269165039062	1460.490600585938	-434.7363586425781	-7.680182933807373	1433.065795898438	-141.4383697509766	-26.90079498291016	999.9229736328124	-456.1459350585938	-27.89166450500488	986.0155639648438	-158.3034973144531	20.88252449035645	944.4146728515624	-442.1354675292969	-532.2005615234375	518.25048828125	-344.8907775878906	30.20144271850586	940.2650146484376	-186.6847839355469	-124.4007263183594	896.1844482421875	-464.6348571777344	-100.6819000244141	882.2713623046875	-146.5078582763672	-121.3056716918945	1037.4130859375	-312.0360717773438	-68.07809448242188	633.1414794921875	-485.3126525878906	-387.5667419433594	523.713134765625	-450.8536071777344	-148.3200225830078	653.990966796875	-481.5494995117188	-94.8677978515625	533.8919067382812	-478.6173706054688	291.2044677734375	115.2659149169922	-167.8136596679688	-290.6174621582031	532.8865966796875	-475.9589233398438	-175.4595184326172	557.8070068359375	-462.2579345703125	122.75146484375	656.7646484375	-149.7594604492188	-634.122802734375	301.2171936035156	-394.7151184082031	49.85591506958008	626.0753173828125	-142.9673004150391	156.9547424316406	567.3004760742188	-185.8225708007812	81.16499328613281	538.650390625	-171.7032165527344	-160.2844085693359	505.8865051269531	-476.4044799804688	125.2363052368164	521.0769653320312	-173.791748046875	-284.5088500976562	453.2025146484375	-475.0442504882812	-383.2766723632812	445.8907470703125	-456.5918579101562	172.6783599853516	404.8780822753906	-172.9266967773438	-644.3911743164062	368.529296875	-443.2232971191406	94.16133880615234	397.6468505859375	-157.8929138183594	-553.25830078125	507.4050903320312	-313.2248840332031	181.6517028808594	303.1855773925781	-183.7581787109375	101.6944580078125	299.4447021484375	-170.4862060546875	-551.205810546875	475.1802673339844	-411.4224853515625	159.6090087890625	112.2365036010742	-204.4468383789062	338.9381408691406	153.7560729980469	-227.3920440673828	108.446044921875	75.13764953613281	-262.6868591308594	135.58837890625	55.5345344543457	-292.0662536621094	117.7728805541992	49.48334121704102	-237.0146484375	-562.1024780273438	531.28662109375	-361.8670959472656
